<?xml version="1.0" encoding="UTF-8" standalone="no"?>
<!-- Created with Inkscape (http://www.inkscape.org/) -->

<svg
   width="7.9375cm"
   height="12.374698cm"
   viewBox="0 0 79.375 123.74698"
   version="1.1"
   id="svg1"
   inkscape:version="1.3.1 (91b66b0783, 2023-11-16, custom)"
   sodipodi:docname="logo.svg"
   xmlns:inkscape="http://www.inkscape.org/namespaces/inkscape"
   xmlns:sodipodi="http://sodipodi.sourceforge.net/DTD/sodipodi-0.dtd"
   xmlns:xlink="http://www.w3.org/1999/xlink"
   xmlns="http://www.w3.org/2000/svg"
   xmlns:svg="http://www.w3.org/2000/svg">
  <sodipodi:namedview
     id="namedview1"
     pagecolor="#ffffff"
     bordercolor="#000000"
     borderopacity="0.25"
     inkscape:showpageshadow="true"
     inkscape:pageopacity="0.0"
     inkscape:pagecheckerboard="0"
     inkscape:deskcolor="#d1d1d1"
     inkscape:document-units="px"
     showborder="false"
     borderlayer="true"
     labelstyle="default"
     inkscape:zoom="1.4142136"
     inkscape:cx="400.92954"
     inkscape:cy="472.34733"
     inkscape:window-width="952"
     inkscape:window-height="1014"
     inkscape:window-x="960"
     inkscape:window-y="0"
     inkscape:window-maximized="0"
     inkscape:current-layer="layer1" />
  <defs
     id="defs1">
    <linearGradient
       id="linearGradient23"
       inkscape:collect="always">
      <stop
         style="stop-color:#ff1111;stop-opacity:1;"
         offset="0"
         id="stop22" />
      <stop
         style="stop-color:#007aff;stop-opacity:1;"
         offset="1"
         id="stop23" />
    </linearGradient>
    <linearGradient
       id="linearGradient21"
       inkscape:collect="always">
      <stop
         style="stop-color:#ff1111;stop-opacity:1;"
         offset="0"
         id="stop20" />
      <stop
         style="stop-color:#007aff;stop-opacity:1;"
         offset="1"
         id="stop21" />
    </linearGradient>
    <linearGradient
       id="linearGradient17"
       inkscape:collect="always">
      <stop
         style="stop-color:#ff1111;stop-opacity:1;"
         offset="0"
         id="stop16" />
      <stop
         style="stop-color:#007aff;stop-opacity:1;"
         offset="1"
         id="stop17" />
    </linearGradient>
    <linearGradient
       inkscape:collect="always"
       xlink:href="#linearGradient21"
       id="linearGradient11"
       x1="65.312492"
       y1="64.440521"
       x2="65.312492"
       y2="188.18748"
       gradientUnits="userSpaceOnUse" />
    <linearGradient
       inkscape:collect="always"
       xlink:href="#linearGradient23"
       id="linearGradient13"
       x1="91.950974"
       y1="89.290154"
       x2="144.6875"
       y2="143.81552"
       gradientUnits="userSpaceOnUse" />
    <linearGradient
       inkscape:collect="always"
       xlink:href="#linearGradient17"
       id="linearGradient16"
       x1="144.68729"
       y1="188.18747"
       x2="144.68729"
       y2="104.12801"
       gradientUnits="userSpaceOnUse" />
  </defs>
  <g
     inkscape:label="Layer 1"
     inkscape:groupmode="layer"
     id="layer1"
     transform="translate(-65.312501,-64.440513)">
    <path
       id="path3"
       style="opacity:1;fill:url(#linearGradient16);stroke-width:0.307865"
       d="m 104.99979,64.440509 a 39.687502,39.687502 0 0 1 3.4432,0.246497 39.687502,39.687502 0 0 0 -0.64182,-0.09974 29.765624,29.765624 0 0 0 -2.80138,-0.146761 z m 8.60412,1.046965 a 39.687502,39.687502 0 0 1 1.1157,0.242879 39.687502,39.687502 0 0 0 -1.1157,-0.242879 z m 6.64714,2.078426 a 39.687502,39.687502 0 0 1 0.42995,0.160197 39.687502,39.687502 0 0 0 -0.42995,-0.160197 z m 11.29544,7.124629 a 39.687502,39.687502 0 0 1 0.51935,0.519348 39.687502,39.687502 0 0 0 -0.51935,-0.519348 z m 4.24263,4.510319 a 39.687502,39.687502 0 0 1 0.95343,1.273824 39.687502,39.687502 0 0 0 -0.95343,-1.273824 z m -30.78933,5.08341 a 19.84375,19.84375 0 0 1 4.15995,0.468706 19.84375,19.84375 0 0 0 -4.15995,-0.468706 z m 0,0 a 19.84375,19.84375 0 0 0 -4.15944,0.468706 19.84375,19.84375 0 0 1 4.15944,-0.468706 z m 34.30178,0.0615 a 39.687502,39.687502 0 0 1 0.89659,1.642277 39.687502,39.687502 0 0 0 -0.89659,-1.642277 z m -39.763979,0.802535 a 19.84375,19.84375 0 0 0 -2.669088,0.933793 19.84375,19.84375 0 0 1 2.669088,-0.933793 z m 10.926469,5.17e-4 a 19.84375,19.84375 0 0 1 2.66598,0.93276 19.84375,19.84375 0 0 0 -2.66598,-0.93276 z m -15.017693,1.693954 a 19.84375,19.84375 0 0 0 -2.187463,1.374076 19.84375,19.84375 0 0 1 2.187463,-1.374076 z m 19.107873,0 a 19.84375,19.84375 0 0 1 2.1885,1.375109 19.84375,19.84375 0 0 0 -2.1885,-1.375109 z m 3.49281,2.445845 a 19.84375,19.84375 0 0 1 1.79163,1.791622 19.84375,19.84375 0 0 0 -1.79163,-1.791622 z m -26.096076,0.0015 a 19.84375,19.84375 0 0 0 -1.789038,1.789038 19.84375,19.84375 0 0 1 1.789038,-1.789038 z m 50.041386,0.74104 a 39.687502,39.687502 0 0 1 0.67283,1.804541 39.687502,39.687502 0 0 0 -0.67283,-1.804541 z m -52.90271,2.354379 a 19.84375,19.84375 0 0 0 -1.37666,2.190563 19.84375,19.84375 0 0 1 1.37666,-2.190563 z m 31.8208,0 a 19.84375,19.84375 0 0 1 1.37511,2.18798 19.84375,19.84375 0 0 0 -1.37511,-2.18798 z m -33.956587,3.611148 a 19.84375,19.84375 0 0 0 -0.93276,2.665988 19.84375,19.84375 0 0 1 0.93276,-2.665988 z m 36.093407,0.0021 a 19.84375,19.84375 0 0 1 0.93017,2.659269 19.84375,19.84375 0 0 0 -0.93017,-2.659269 z m 20.75893,0.28577 a 39.687502,39.687502 0 0 1 0.35502,1.633492 39.687502,39.687502 0 0 0 -0.35502,-1.633492 z m -58.181455,3.68453 A 19.84375,19.84375 0 0 0 85.15604,104.128 19.84375,19.84375 0 0 1 85.624745,99.969076 Z M 85.15604,104.128 a 19.84375,19.84375 0 0 0 0.516247,4.31601 19.84375,19.84375 0 0 1 -0.516247,-4.31601 z m 39.21931,-4.158924 a 19.84375,19.84375 0 0 1 0.46819,4.158924 19.84375,19.84375 0 0 0 -0.46819,-4.158924 z m 20.31194,4.158924 a 39.687502,39.687502 0 0 1 -19.84375,34.26819 v 31.8425 c 0,9.9436 8.00516,17.94877 17.94877,17.94877 h 1.89498 z m -58.615027,5.63376 a 19.84375,19.84375 0 0 0 1.045414,2.80448 19.84375,19.84375 0 0 1 -1.045414,-2.80448 z m 1.793172,4.20285 a 19.84375,19.84375 0 0 0 1.600419,2.36419 19.84375,19.84375 0 0 1 -1.600419,-2.36419 z m 2.587439,3.56722 a 19.84375,19.84375 0 0 0 2.316654,2.10582 19.84375,19.84375 0 0 1 -2.316654,-2.10582 z m 3.268534,2.88716 a 19.84375,19.84375 0 0 0 3.810103,2.0805 19.84375,19.84375 0 0 1 -3.810103,-2.0805 z m 4.542358,2.30219 a 19.84375,19.84375 0 0 0 2.699064,0.81855 29.765624,29.765624 0 0 0 0.37413,0.0713 19.84375,19.84375 0 0 0 0.38913,0.0382 19.84375,19.84375 0 0 1 -3.462324,-0.92811 z" />
    <path
       id="path1"
       style="display:inline;opacity:1;fill:url(#linearGradient13);stroke-width:0.410486"
       d="m 104.99999,143.81552 a 39.687502,39.687502 0 0 1 -39.687494,-39.6875 39.687502,39.687502 0 0 1 39.687494,-39.687497 39.687502,39.687502 0 0 1 39.68751,39.687497 39.687502,39.687502 0 0 1 -39.68751,39.6875 z m 0,-19.84375 a 19.84375,19.84375 0 0 0 19.84376,-19.84375 19.84375,19.84375 0 0 0 -19.84376,-19.843747 19.84375,19.84375 0 0 0 -19.843744,19.843747 19.84375,19.84375 0 0 0 19.843744,19.84375 z" />
    <path
       id="path9"
       style="opacity:1;fill:url(#linearGradient11);stroke-width:0.307865"
       d="m 67.207476,188.18749 c 9.94362,0 17.94877,-8.00516 17.94877,-17.94877 v -66.1107 a 19.84375,19.84375 0 0 1 19.843764,-19.843747 19.84375,19.84375 0 0 1 19.84374,19.843747 19.84375,19.84375 0 0 1 -17.01963,19.64169 29.765624,29.765624 0 0 0 26.94151,-29.563557 29.765624,29.765624 0 0 0 -29.76562,-29.76563 29.765624,29.765624 0 0 0 -2.80139,0.14676 39.687502,39.687502 0 0 0 -36.886124,39.540737 v 84.05947 z" />
  </g>
</svg>
