<?xml version="1.0" encoding="UTF-8" standalone="no"?>
<!-- Created with Inkscape (http://www.inkscape.org/) -->

<svg
   width="7.9375cm"
   height="12.374698cm"
   viewBox="0 0 79.375 123.74698"
   version="1.1"
   id="svg1"
   xmlns:xlink="http://www.w3.org/1999/xlink"
   xmlns="http://www.w3.org/2000/svg"
   xmlns:svg="http://www.w3.org/2000/svg">
  <defs
     id="defs1">
    <linearGradient
       id="linearGradient23">
      <stop
         style="stop-color:#ff1111;stop-opacity:1;"
         offset="0"
         id="stop22" />
      <stop
         style="stop-color:#007aff;stop-opacity:1;"
         offset="1"
         id="stop23" />
    </linearGradient>
    <linearGradient
       id="linearGradient21">
      <stop
         style="stop-color:#ff1111;stop-opacity:1;"
         offset="0"
         id="stop20" />
      <stop
         style="stop-color:#007aff;stop-opacity:1;"
         offset="1"
         id="stop21" />
    </linearGradient>
    <linearGradient
       id="linearGradient17">
      <stop
         style="stop-color:#ff1111;stop-opacity:1;"
         offset="0"
         id="stop16" />
      <stop
         style="stop-color:#007aff;stop-opacity:1;"
         offset="1"
         id="stop17" />
    </linearGradient>
    <linearGradient
       xlink:href="#linearGradient21"
       id="linearGradient11"
       x1="65.312492"
       y1="64.440521"
       x2="65.312492"
       y2="188.18748"
       gradientUnits="userSpaceOnUse" />
    <linearGradient
       xlink:href="#linearGradient23"
       id="linearGradient13"
       x1="91.950974"
       y1="89.290154"
       x2="144.6875"
       y2="143.81552"
       gradientUnits="userSpaceOnUse" />
    <linearGradient
       xlink:href="#linearGradient17"
       id="linearGradient16"
       x1="144.68729"
       y1="188.18747"
       x2="144.68729"
       y2="104.12801"
       gradientUnits="userSpaceOnUse" />
  </defs>
  <g
     id="layer1"
     transform="translate(-65.312501,-64.440513)">
    <path
       id="path3"
       style="opacity:1;fill:url(#linearGradient16);stroke-width:0.307865"
       d="m 104.99979,64.440509 3.4432,0.246497 -0.64182,-0.09974 -2.80138,-0.146761 z m 8.60412,1.046965 1.1157,0.242879 z m 6.64714,2.078426 0.42995,0.160197 z m 11.29544,7.124629 0.51935,0.519348 z m 4.24263,4.510319 0.95343,1.273824 z m -30.78933,5.08341 4.15995,0.468706 z m 0,0 -4.15944,0.468706 z m 34.30178,0.0615 0.89659,1.642277 z m -39.763979,0.802535 -2.669088,0.933793 z m 10.926469,5.17e-4 2.66598,0.93276 z m -15.017693,1.693954 -2.187463,1.374076 z m 19.107873,0 2.1885,1.375109 z m 3.49281,2.445845 1.79163,1.791622 z m -26.096076,0.0015 -1.789038,1.789038 z m 50.041386,0.74104 0.67283,1.804541 z m -52.90271,2.354379 -1.37666,2.190563 z m 31.8208,0 1.37511,2.18798 z m -33.956587,3.611148 -0.93276,2.665988 z m 36.093407,0.0021 0.93017,2.659269 z m 20.75893,0.28577 0.35502,1.633492 z M 85.624745,99.969076 85.15604,104.128 Z m -0.468705,4.158924 0.516247,4.31601 z m 39.21931,-4.158924 0.46819,4.158924 z m 20.31194,4.158924 c 0.70721,14.53398 -9.25539,27.3409 -19.84375,35.15029 0.0582,10.93267 -0.11853,21.87274 0.0923,32.80063 0.71118,9.62003 10.12088,17.08916 19.62063,16.10854 0.3055,-3.26648 0.0434,-7.10061 0.13079,-10.58515 0,-24.49144 0,-48.98287 0,-73.47431 z m -58.615027,5.63376 1.045414,2.80448 z m 1.793172,4.20285 1.600419,2.36419 z m 2.587439,3.56722 2.316654,2.10582 z m 3.268534,2.88716 3.810103,2.0805 z m 4.542358,2.30219 c 0.662403,0.80702 8.534834,1.67353 0,-6e-5 z" />
    <path
       id="path1"
       style="display:inline;opacity:1;fill:url(#linearGradient13);stroke-width:0.410486"
       d="M 104.99999,143.81552 C 76.822975,145.08077 56.059265,111.63069 69.242793,86.908267 80.337827,61.041706 119.45315,56.560043 136.02894,79.383274 c 18.51271,21.211756 5.46666,58.374736 -22.19765,63.437196 z m 0,-19.84375 c 18.49657,1.05691 27.24915,-25.880724 11.66387,-35.89768 -14.3428,-11.727057 -37.257318,4.921306 -30.536392,22.18598 2.479272,8.02082 10.478139,13.83234 18.872522,13.7117 z" />
    <path
       id="path9"
       style="opacity:1;fill:url(#linearGradient11);stroke-width:0.307865"
       d="m 67.207476,188.18749 c 10.064229,0.30968 18.815481,-9.13263 17.94877,-19.1249 0,-21.64486 0,-43.28971 0,-64.93457 -1.0569,-18.496564 25.880724,-27.249127 35.897684,-11.663867 8.97747,11.245227 1.05774,29.900317 -13.22981,31.305557 25.10507,-0.97733 36.0629,-35.994053 17.22886,-51.560625 -22.59002,-20.525931 -62.306018,3.09531 -59.740484,32.506995 0,27.82381 0,55.64761 0,83.47141 0.63166,0 1.26332,0 1.89498,0 z" />
  </g>
</svg>
