<?xml version="1.0" encoding="UTF-8" standalone="no"?>
<!-- Created with Inkscape (http://www.inkscape.org/) -->

<svg
   width="21cm"
   height="29.699999cm"
   viewBox="0 0 210 296.99999"
   version="1.1"
   id="svg1"
   inkscape:version="1.3.1 (91b66b0783, 2023-11-16, custom)"
   sodipodi:docname="logo.svg"
   xmlns:inkscape="http://www.inkscape.org/namespaces/inkscape"
   xmlns:sodipodi="http://sodipodi.sourceforge.net/DTD/sodipodi-0.dtd"
   xmlns:xlink="http://www.w3.org/1999/xlink"
   xmlns="http://www.w3.org/2000/svg"
   xmlns:svg="http://www.w3.org/2000/svg">
  <sodipodi:namedview
     id="namedview1"
     pagecolor="#ffffff"
     bordercolor="#000000"
     borderopacity="0.25"
     inkscape:showpageshadow="true"
     inkscape:pageopacity="0.0"
     inkscape:pagecheckerboard="0"
     inkscape:deskcolor="#d1d1d1"
     inkscape:document-units="px"
     showborder="false"
     borderlayer="true"
     labelstyle="default"
     inkscape:zoom="1.4142136"
     inkscape:cx="400.92954"
     inkscape:cy="472.34733"
     inkscape:window-width="1920"
     inkscape:window-height="1022"
     inkscape:window-x="0"
     inkscape:window-y="0"
     inkscape:window-maximized="1"
     inkscape:current-layer="layer1" />
  <defs
     id="defs1">
    <linearGradient
       id="linearGradient23"
       inkscape:collect="always">
      <stop
         style="stop-color:#ff1111;stop-opacity:1;"
         offset="0"
         id="stop22" />
      <stop
         style="stop-color:#007aff;stop-opacity:1;"
         offset="1"
         id="stop23" />
    </linearGradient>
    <linearGradient
       id="linearGradient21"
       inkscape:collect="always">
      <stop
         style="stop-color:#ff1111;stop-opacity:1;"
         offset="0"
         id="stop20" />
      <stop
         style="stop-color:#007aff;stop-opacity:1;"
         offset="1"
         id="stop21" />
    </linearGradient>
    <linearGradient
       id="linearGradient17"
       inkscape:collect="always">
      <stop
         style="stop-color:#ff1111;stop-opacity:1;"
         offset="0"
         id="stop16" />
      <stop
         style="stop-color:#007aff;stop-opacity:1;"
         offset="1"
         id="stop17" />
    </linearGradient>
    <linearGradient
       inkscape:collect="always"
       xlink:href="#linearGradient21"
       id="linearGradient11"
       x1="65.312492"
       y1="64.440521"
       x2="65.312492"
       y2="188.18748"
       gradientUnits="userSpaceOnUse" />
    <linearGradient
       inkscape:collect="always"
       xlink:href="#linearGradient23"
       id="linearGradient13"
       x1="91.950974"
       y1="89.290154"
       x2="144.6875"
       y2="143.81552"
       gradientUnits="userSpaceOnUse" />
    <linearGradient
       inkscape:collect="always"
       xlink:href="#linearGradient17"
       id="linearGradient16"
       x1="144.68729"
       y1="188.18747"
       x2="144.68729"
       y2="104.12801"
       gradientUnits="userSpaceOnUse" />
  </defs>
  <g
     inkscape:label="Layer 1"
     inkscape:groupmode="layer"
     id="layer1">
    <path
       id="path3"
       style="opacity:1;fill:url(#linearGradient16);stroke-width:0.307865"
       d="M 104.99979 64.440509 A 39.687502 39.687502 0 0 1 108.44299 64.687006 A 39.687502 39.687502 0 0 0 107.80117 64.58727 A 29.765624 29.765624 0 0 0 104.99979 64.440509 z M 113.60391 65.487474 A 39.687502 39.687502 0 0 1 114.71961 65.730353 A 39.687502 39.687502 0 0 0 113.60391 65.487474 z M 120.25105 67.5659 A 39.687502 39.687502 0 0 1 120.681 67.726097 A 39.687502 39.687502 0 0 0 120.25105 67.5659 z M 131.54649 74.690529 A 39.687502 39.687502 0 0 1 132.06584 75.209877 A 39.687502 39.687502 0 0 0 131.54649 74.690529 z M 135.78912 79.200848 A 39.687502 39.687502 0 0 1 136.74255 80.474672 A 39.687502 39.687502 0 0 0 135.78912 79.200848 z M 104.99979 84.284258 A 19.84375 19.84375 0 0 1 109.15974 84.752964 A 19.84375 19.84375 0 0 0 104.99979 84.284258 z M 104.99979 84.284258 A 19.84375 19.84375 0 0 0 100.84035 84.752964 A 19.84375 19.84375 0 0 1 104.99979 84.284258 z M 139.30157 84.345753 A 39.687502 39.687502 0 0 1 140.19816 85.98803 A 39.687502 39.687502 0 0 0 139.30157 84.345753 z M 99.537591 85.148288 A 19.84375 19.84375 0 0 0 96.868503 86.082081 A 19.84375 19.84375 0 0 1 99.537591 85.148288 z M 110.46406 85.148805 A 19.84375 19.84375 0 0 1 113.13004 86.081565 A 19.84375 19.84375 0 0 0 110.46406 85.148805 z M 95.446367 86.842759 A 19.84375 19.84375 0 0 0 93.258904 88.216835 A 19.84375 19.84375 0 0 1 95.446367 86.842759 z M 114.55424 86.842759 A 19.84375 19.84375 0 0 1 116.74274 88.217868 A 19.84375 19.84375 0 0 0 114.55424 86.842759 z M 118.04705 89.288604 A 19.84375 19.84375 0 0 1 119.83868 91.080226 A 19.84375 19.84375 0 0 0 118.04705 89.288604 z M 91.950974 89.290154 A 19.84375 19.84375 0 0 0 90.161936 91.079192 A 19.84375 19.84375 0 0 1 91.950974 89.290154 z M 141.99236 90.031194 A 39.687502 39.687502 0 0 1 142.66519 91.835735 A 39.687502 39.687502 0 0 0 141.99236 90.031194 z M 89.08965 92.385573 A 19.84375 19.84375 0 0 0 87.71299 94.576136 A 19.84375 19.84375 0 0 1 89.08965 92.385573 z M 120.91045 92.385573 A 19.84375 19.84375 0 0 1 122.28556 94.573553 A 19.84375 19.84375 0 0 0 120.91045 92.385573 z M 86.953863 95.996721 A 19.84375 19.84375 0 0 0 86.021103 98.662709 A 19.84375 19.84375 0 0 1 86.953863 95.996721 z M 123.04727 95.998789 A 19.84375 19.84375 0 0 1 123.97744 98.658058 A 19.84375 19.84375 0 0 0 123.04727 95.998789 z M 143.8062 96.284559 A 39.687502 39.687502 0 0 1 144.16122 97.918051 A 39.687502 39.687502 0 0 0 143.8062 96.284559 z M 85.624745 99.969089 A 19.84375 19.84375 0 0 0 85.15604 104.12801 A 19.84375 19.84375 0 0 1 85.624745 99.969089 z M 85.15604 104.12801 A 19.84375 19.84375 0 0 0 85.672287 108.44402 A 19.84375 19.84375 0 0 1 85.15604 104.12801 z M 124.37535 99.969089 A 19.84375 19.84375 0 0 1 124.84354 104.12801 A 19.84375 19.84375 0 0 0 124.37535 99.969089 z M 144.68729 104.12801 A 39.687502 39.687502 0 0 1 124.84354 138.3962 L 124.84354 170.2387 C 124.84354 180.1823 132.8487 188.18747 142.79231 188.18747 L 144.68729 188.18747 L 144.68729 104.12801 z M 86.072263 109.76177 A 19.84375 19.84375 0 0 0 87.117677 112.56625 A 19.84375 19.84375 0 0 1 86.072263 109.76177 z M 87.865435 113.96462 A 19.84375 19.84375 0 0 0 89.465854 116.32881 A 19.84375 19.84375 0 0 1 87.865435 113.96462 z M 90.452874 117.53184 A 19.84375 19.84375 0 0 0 92.769528 119.63766 A 19.84375 19.84375 0 0 1 90.452874 117.53184 z M 93.721408 120.419 A 19.84375 19.84375 0 0 0 97.531511 122.4995 A 19.84375 19.84375 0 0 1 93.721408 120.419 z M 98.263766 122.72119 A 19.84375 19.84375 0 0 0 100.96283 123.53974 A 29.765624 29.765624 0 0 0 101.33696 123.61106 A 19.84375 19.84375 0 0 0 101.72609 123.6493 A 19.84375 19.84375 0 0 1 98.263766 122.72119 z "
       inkscape:export-filename="A.svg"
       inkscape:export-xdpi="96"
       inkscape:export-ydpi="96" />
    <path
       id="path1"
       style="display:inline;opacity:1;stroke-width:0.410486;fill:url(#linearGradient13)"
       d="m 104.99999,143.81552 a 39.687502,39.687502 0 0 1 -39.687494,-39.6875 39.687502,39.687502 0 0 1 39.687494,-39.687497 39.687502,39.687502 0 0 1 39.68751,39.687497 39.687502,39.687502 0 0 1 -39.68751,39.6875 z m 0,-19.84375 a 19.84375,19.84375 0 0 0 19.84376,-19.84375 19.84375,19.84375 0 0 0 -19.84376,-19.843747 19.84375,19.84375 0 0 0 -19.843744,19.843747 19.84375,19.84375 0 0 0 19.843744,19.84375 z" />
    <path
       id="path9"
       style="opacity:1;fill:url(#linearGradient11);stroke-width:0.307865"
       d="m 67.207476,188.18749 c 9.94362,0 17.94877,-8.00516 17.94877,-17.94877 v -66.1107 a 19.84375,19.84375 0 0 1 19.843764,-19.843747 19.84375,19.84375 0 0 1 19.84374,19.843747 19.84375,19.84375 0 0 1 -17.01963,19.64169 29.765624,29.765624 0 0 0 26.94151,-29.563557 29.765624,29.765624 0 0 0 -29.76562,-29.76563 29.765624,29.765624 0 0 0 -2.80139,0.14676 39.687502,39.687502 0 0 0 -36.886124,39.540737 v 84.05947 z" />
  </g>
</svg>
